<mxfile host="app.diagrams.net" modified="2023-11-20T20:44:28.568Z" agent="Mozilla/5.0 (Windows NT 10.0; Win64; x64) AppleWebKit/537.36 (KHTML, like Gecko) Chrome/119.0.0.0 Safari/537.36" etag="rssPXlHTPMv_J_NS6CMi" version="22.1.3" type="device">
  <diagram name="Pagina-1" id="v59aUNjNT8_l-Xgh7eBR">
    <mxGraphModel dx="2261" dy="1959" grid="1" gridSize="10" guides="1" tooltips="1" connect="1" arrows="1" fold="1" page="1" pageScale="1" pageWidth="827" pageHeight="1169" math="0" shadow="0">
      <root>
        <mxCell id="0" />
        <mxCell id="1" parent="0" />
        <mxCell id="uJOny6Sq6Ekg-Lk2o-DT-3" style="edgeStyle=orthogonalEdgeStyle;rounded=0;orthogonalLoop=1;jettySize=auto;html=1;" parent="1" source="uJOny6Sq6Ekg-Lk2o-DT-1" target="uJOny6Sq6Ekg-Lk2o-DT-2" edge="1">
          <mxGeometry relative="1" as="geometry" />
        </mxCell>
        <mxCell id="uJOny6Sq6Ekg-Lk2o-DT-5" style="edgeStyle=orthogonalEdgeStyle;rounded=0;orthogonalLoop=1;jettySize=auto;html=1;" parent="1" source="uJOny6Sq6Ekg-Lk2o-DT-1" target="uJOny6Sq6Ekg-Lk2o-DT-4" edge="1">
          <mxGeometry relative="1" as="geometry" />
        </mxCell>
        <mxCell id="uJOny6Sq6Ekg-Lk2o-DT-13" style="edgeStyle=orthogonalEdgeStyle;rounded=0;orthogonalLoop=1;jettySize=auto;html=1;" parent="1" source="uJOny6Sq6Ekg-Lk2o-DT-1" target="uJOny6Sq6Ekg-Lk2o-DT-12" edge="1">
          <mxGeometry relative="1" as="geometry" />
        </mxCell>
        <mxCell id="uJOny6Sq6Ekg-Lk2o-DT-1" value="Actor" style="shape=umlActor;verticalLabelPosition=bottom;verticalAlign=top;html=1;outlineConnect=0;" parent="1" vertex="1">
          <mxGeometry x="580" y="540" width="30" height="60" as="geometry" />
        </mxCell>
        <mxCell id="uJOny6Sq6Ekg-Lk2o-DT-11" style="edgeStyle=orthogonalEdgeStyle;rounded=0;orthogonalLoop=1;jettySize=auto;html=1;" parent="1" source="uJOny6Sq6Ekg-Lk2o-DT-2" target="uJOny6Sq6Ekg-Lk2o-DT-10" edge="1">
          <mxGeometry relative="1" as="geometry" />
        </mxCell>
        <mxCell id="uJOny6Sq6Ekg-Lk2o-DT-16" style="edgeStyle=orthogonalEdgeStyle;rounded=0;orthogonalLoop=1;jettySize=auto;html=1;" parent="1" source="uJOny6Sq6Ekg-Lk2o-DT-2" target="uJOny6Sq6Ekg-Lk2o-DT-15" edge="1">
          <mxGeometry relative="1" as="geometry" />
        </mxCell>
        <mxCell id="uJOny6Sq6Ekg-Lk2o-DT-2" value="Create resource in user subnet" style="sketch=0;points=[[0,0,0],[0.25,0,0],[0.5,0,0],[0.75,0,0],[1,0,0],[0,1,0],[0.25,1,0],[0.5,1,0],[0.75,1,0],[1,1,0],[0,0.25,0],[0,0.5,0],[0,0.75,0],[1,0.25,0],[1,0.5,0],[1,0.75,0]];outlineConnect=0;fontColor=#232F3E;fillColor=#ED7100;strokeColor=#ffffff;dashed=0;verticalLabelPosition=bottom;verticalAlign=top;align=center;html=1;fontSize=12;fontStyle=0;aspect=fixed;shape=mxgraph.aws4.resourceIcon;resIcon=mxgraph.aws4.lambda;" parent="1" vertex="1">
          <mxGeometry x="570" y="380" width="50" height="50" as="geometry" />
        </mxCell>
        <mxCell id="uJOny6Sq6Ekg-Lk2o-DT-4" value="Static files" style="outlineConnect=0;dashed=0;verticalLabelPosition=bottom;verticalAlign=top;align=center;html=1;shape=mxgraph.aws3.s3;fillColor=#E05243;gradientColor=none;" parent="1" vertex="1">
          <mxGeometry x="1040" y="375" width="60" height="60" as="geometry" />
        </mxCell>
        <mxCell id="uJOny6Sq6Ekg-Lk2o-DT-24" style="edgeStyle=orthogonalEdgeStyle;rounded=0;orthogonalLoop=1;jettySize=auto;html=1;exitX=0.25;exitY=0.25;exitDx=0;exitDy=0;exitPerimeter=0;" parent="1" source="uJOny6Sq6Ekg-Lk2o-DT-6" target="uJOny6Sq6Ekg-Lk2o-DT-21" edge="1">
          <mxGeometry relative="1" as="geometry">
            <Array as="points">
              <mxPoint x="-59" y="-16" />
              <mxPoint x="-60" y="-16" />
            </Array>
          </mxGeometry>
        </mxCell>
        <mxCell id="uJOny6Sq6Ekg-Lk2o-DT-25" style="edgeStyle=orthogonalEdgeStyle;rounded=0;orthogonalLoop=1;jettySize=auto;html=1;exitX=0.4;exitY=0.1;exitDx=0;exitDy=0;exitPerimeter=0;" parent="1" source="uJOny6Sq6Ekg-Lk2o-DT-6" target="uJOny6Sq6Ekg-Lk2o-DT-21" edge="1">
          <mxGeometry relative="1" as="geometry">
            <Array as="points">
              <mxPoint x="-28" y="-16" />
              <mxPoint x="-10" y="-16" />
            </Array>
          </mxGeometry>
        </mxCell>
        <mxCell id="uJOny6Sq6Ekg-Lk2o-DT-26" style="edgeStyle=orthogonalEdgeStyle;rounded=0;orthogonalLoop=1;jettySize=auto;html=1;exitX=0.625;exitY=0.2;exitDx=0;exitDy=0;exitPerimeter=0;" parent="1" source="uJOny6Sq6Ekg-Lk2o-DT-6" target="uJOny6Sq6Ekg-Lk2o-DT-21" edge="1">
          <mxGeometry relative="1" as="geometry">
            <Array as="points">
              <mxPoint x="18" y="-16" />
              <mxPoint x="60" y="-16" />
            </Array>
          </mxGeometry>
        </mxCell>
        <mxCell id="uJOny6Sq6Ekg-Lk2o-DT-27" style="edgeStyle=orthogonalEdgeStyle;rounded=0;orthogonalLoop=1;jettySize=auto;html=1;exitX=0.875;exitY=0.5;exitDx=0;exitDy=0;exitPerimeter=0;startArrow=none;startFill=0;" parent="1" source="uJOny6Sq6Ekg-Lk2o-DT-6" target="uJOny6Sq6Ekg-Lk2o-DT-21" edge="1">
          <mxGeometry relative="1" as="geometry">
            <Array as="points">
              <mxPoint x="69" y="-16" />
              <mxPoint x="200" y="-16" />
            </Array>
          </mxGeometry>
        </mxCell>
        <mxCell id="uJOny6Sq6Ekg-Lk2o-DT-6" value="" style="ellipse;shape=cloud;whiteSpace=wrap;html=1;" parent="1" vertex="1">
          <mxGeometry x="-110" y="30" width="204" height="140" as="geometry" />
        </mxCell>
        <mxCell id="uJOny6Sq6Ekg-Lk2o-DT-7" value="Lambda" style="sketch=0;points=[[0,0,0],[0.25,0,0],[0.5,0,0],[0.75,0,0],[1,0,0],[0,1,0],[0.25,1,0],[0.5,1,0],[0.75,1,0],[1,1,0],[0,0.25,0],[0,0.5,0],[0,0.75,0],[1,0.25,0],[1,0.5,0],[1,0.75,0]];outlineConnect=0;fontColor=#232F3E;fillColor=#ED7100;strokeColor=#ffffff;dashed=0;verticalLabelPosition=bottom;verticalAlign=top;align=center;html=1;fontSize=12;fontStyle=0;aspect=fixed;shape=mxgraph.aws4.resourceIcon;resIcon=mxgraph.aws4.lambda;" parent="1" vertex="1">
          <mxGeometry x="-43.5" y="80" width="30" height="30" as="geometry" />
        </mxCell>
        <mxCell id="uJOny6Sq6Ekg-Lk2o-DT-8" value="ECS" style="sketch=0;points=[[0,0,0],[0.25,0,0],[0.5,0,0],[0.75,0,0],[1,0,0],[0,1,0],[0.25,1,0],[0.5,1,0],[0.75,1,0],[1,1,0],[0,0.25,0],[0,0.5,0],[0,0.75,0],[1,0.25,0],[1,0.5,0],[1,0.75,0]];outlineConnect=0;fontColor=#232F3E;fillColor=#ED7100;strokeColor=#ffffff;dashed=0;verticalLabelPosition=bottom;verticalAlign=top;align=center;html=1;fontSize=12;fontStyle=0;aspect=fixed;shape=mxgraph.aws4.resourceIcon;resIcon=mxgraph.aws4.ecs;" parent="1" vertex="1">
          <mxGeometry x="-2.5" y="80" width="30" height="30" as="geometry" />
        </mxCell>
        <mxCell id="uJOny6Sq6Ekg-Lk2o-DT-9" style="edgeStyle=orthogonalEdgeStyle;rounded=0;orthogonalLoop=1;jettySize=auto;html=1;entryX=0.495;entryY=0.986;entryDx=0;entryDy=0;entryPerimeter=0;" parent="1" source="uJOny6Sq6Ekg-Lk2o-DT-2" target="uJOny6Sq6Ekg-Lk2o-DT-6" edge="1">
          <mxGeometry relative="1" as="geometry">
            <Array as="points">
              <mxPoint x="595" y="330" />
              <mxPoint x="-9" y="330" />
            </Array>
          </mxGeometry>
        </mxCell>
        <mxCell id="uJOny6Sq6Ekg-Lk2o-DT-19" style="edgeStyle=orthogonalEdgeStyle;rounded=0;orthogonalLoop=1;jettySize=auto;html=1;" parent="1" source="uJOny6Sq6Ekg-Lk2o-DT-10" target="uJOny6Sq6Ekg-Lk2o-DT-14" edge="1">
          <mxGeometry relative="1" as="geometry" />
        </mxCell>
        <mxCell id="uJOny6Sq6Ekg-Lk2o-DT-31" value="Connection started by client" style="edgeLabel;html=1;align=center;verticalAlign=middle;resizable=0;points=[];" parent="uJOny6Sq6Ekg-Lk2o-DT-19" vertex="1" connectable="0">
          <mxGeometry x="0.441" y="2" relative="1" as="geometry">
            <mxPoint as="offset" />
          </mxGeometry>
        </mxCell>
        <mxCell id="uJOny6Sq6Ekg-Lk2o-DT-10" value="External PC (with agent installed)" style="shape=mxgraph.cisco.computers_and_peripherals.pc;html=1;pointerEvents=1;dashed=0;fillColor=#036897;strokeColor=#ffffff;strokeWidth=2;verticalLabelPosition=bottom;verticalAlign=top;align=center;outlineConnect=0;" parent="1" vertex="1">
          <mxGeometry x="712" y="240" width="48" height="50" as="geometry" />
        </mxCell>
        <mxCell id="uJOny6Sq6Ekg-Lk2o-DT-17" style="edgeStyle=orthogonalEdgeStyle;rounded=0;orthogonalLoop=1;jettySize=auto;html=1;" parent="1" source="uJOny6Sq6Ekg-Lk2o-DT-12" target="uJOny6Sq6Ekg-Lk2o-DT-14" edge="1">
          <mxGeometry relative="1" as="geometry">
            <Array as="points">
              <mxPoint x="225" y="65" />
            </Array>
          </mxGeometry>
        </mxCell>
        <mxCell id="uJOny6Sq6Ekg-Lk2o-DT-18" value="Start / Stop Instance" style="edgeLabel;html=1;align=center;verticalAlign=middle;resizable=0;points=[];" parent="uJOny6Sq6Ekg-Lk2o-DT-17" vertex="1" connectable="0">
          <mxGeometry x="-0.3933" relative="1" as="geometry">
            <mxPoint as="offset" />
          </mxGeometry>
        </mxCell>
        <mxCell id="uJOny6Sq6Ekg-Lk2o-DT-12" value="Start / Stop Instances (if ECS / External PCs are present)" style="sketch=0;points=[[0,0,0],[0.25,0,0],[0.5,0,0],[0.75,0,0],[1,0,0],[0,1,0],[0.25,1,0],[0.5,1,0],[0.75,1,0],[1,1,0],[0,0.25,0],[0,0.5,0],[0,0.75,0],[1,0.25,0],[1,0.5,0],[1,0.75,0]];outlineConnect=0;fontColor=#232F3E;fillColor=#ED7100;strokeColor=#ffffff;dashed=0;verticalLabelPosition=bottom;verticalAlign=top;align=center;html=1;fontSize=12;fontStyle=0;aspect=fixed;shape=mxgraph.aws4.resourceIcon;resIcon=mxgraph.aws4.lambda;" parent="1" vertex="1">
          <mxGeometry x="200" y="380" width="50" height="50" as="geometry" />
        </mxCell>
        <mxCell id="uJOny6Sq6Ekg-Lk2o-DT-28" style="edgeStyle=orthogonalEdgeStyle;rounded=0;orthogonalLoop=1;jettySize=auto;html=1;" parent="1" source="uJOny6Sq6Ekg-Lk2o-DT-14" target="uJOny6Sq6Ekg-Lk2o-DT-21" edge="1">
          <mxGeometry relative="1" as="geometry" />
        </mxCell>
        <mxCell id="uJOny6Sq6Ekg-Lk2o-DT-29" style="edgeStyle=orthogonalEdgeStyle;rounded=0;orthogonalLoop=1;jettySize=auto;html=1;" parent="1" source="uJOny6Sq6Ekg-Lk2o-DT-14" target="uJOny6Sq6Ekg-Lk2o-DT-21" edge="1">
          <mxGeometry relative="1" as="geometry">
            <Array as="points">
              <mxPoint x="555" y="-16" />
              <mxPoint x="690" y="-16" />
            </Array>
          </mxGeometry>
        </mxCell>
        <mxCell id="uJOny6Sq6Ekg-Lk2o-DT-14" value="User VPN container&lt;br&gt;(routed to user subnet)" style="shadow=0;dashed=0;html=1;strokeColor=none;fillColor=#4495D1;labelPosition=center;verticalLabelPosition=bottom;verticalAlign=top;align=center;outlineConnect=0;shape=mxgraph.veeam.vpn;" parent="1" vertex="1">
          <mxGeometry x="510" y="30" width="90" height="70" as="geometry" />
        </mxCell>
        <mxCell id="uJOny6Sq6Ekg-Lk2o-DT-20" style="edgeStyle=orthogonalEdgeStyle;rounded=0;orthogonalLoop=1;jettySize=auto;html=1;" parent="1" source="uJOny6Sq6Ekg-Lk2o-DT-15" target="uJOny6Sq6Ekg-Lk2o-DT-14" edge="1">
          <mxGeometry relative="1" as="geometry">
            <Array as="points">
              <mxPoint x="920" y="65" />
            </Array>
          </mxGeometry>
        </mxCell>
        <mxCell id="uJOny6Sq6Ekg-Lk2o-DT-15" value="External PC (with agent installed)" style="shape=mxgraph.cisco.computers_and_peripherals.pc;html=1;pointerEvents=1;dashed=0;fillColor=#036897;strokeColor=#ffffff;strokeWidth=2;verticalLabelPosition=bottom;verticalAlign=top;align=center;outlineConnect=0;" parent="1" vertex="1">
          <mxGeometry x="900" y="237.5" width="50" height="55" as="geometry" />
        </mxCell>
        <mxCell id="uJOny6Sq6Ekg-Lk2o-DT-21" value="" style="line;strokeWidth=4;html=1;perimeter=backbonePerimeter;points=[];outlineConnect=0;" parent="1" vertex="1">
          <mxGeometry x="-110" y="-72" width="1070" height="10" as="geometry" />
        </mxCell>
        <mxCell id="uJOny6Sq6Ekg-Lk2o-DT-22" value="User subnet" style="outlineConnect=0;dashed=0;verticalLabelPosition=bottom;verticalAlign=top;align=center;html=1;shape=mxgraph.aws3.virtual_private_cloud;fillColor=#F58534;gradientColor=none;" parent="1" vertex="1">
          <mxGeometry x="-189.5" y="-100" width="79.5" height="54" as="geometry" />
        </mxCell>
        <mxCell id="uJOny6Sq6Ekg-Lk2o-DT-33" style="edgeStyle=orthogonalEdgeStyle;rounded=0;orthogonalLoop=1;jettySize=auto;html=1;" parent="1" edge="1">
          <mxGeometry relative="1" as="geometry">
            <mxPoint x="388.5" y="-195" as="sourcePoint" />
            <mxPoint x="390" y="-70" as="targetPoint" />
            <Array as="points">
              <mxPoint x="388.5" y="-130" />
              <mxPoint x="389.5" y="-130" />
            </Array>
          </mxGeometry>
        </mxCell>
        <mxCell id="uJOny6Sq6Ekg-Lk2o-DT-32" value="" style="sketch=0;points=[[0,0,0],[0.25,0,0],[0.5,0,0],[0.75,0,0],[1,0,0],[0,1,0],[0.25,1,0],[0.5,1,0],[0.75,1,0],[1,1,0],[0,0.25,0],[0,0.5,0],[0,0.75,0],[1,0.25,0],[1,0.5,0],[1,0.75,0]];outlineConnect=0;fontColor=#232F3E;fillColor=#8C4FFF;strokeColor=#ffffff;dashed=0;verticalLabelPosition=bottom;verticalAlign=top;align=center;html=1;fontSize=12;fontStyle=0;aspect=fixed;shape=mxgraph.aws4.resourceIcon;resIcon=mxgraph.aws4.route_53;" parent="1" vertex="1">
          <mxGeometry x="350" y="-280" width="78" height="78" as="geometry" />
        </mxCell>
      </root>
    </mxGraphModel>
  </diagram>
</mxfile>
